<svg id="visual" viewBox="0 0 900 600" width="900" height="600" xmlns="http://www.w3.org/2000/svg" xmlns:xlink="http://www.w3.org/1999/xlink" version="1.1"><rect x="0" y="0" width="900" height="600" fill="#002233"></rect><path d="M0 489L21.5 489.8C43 490.7 86 492.3 128.8 475.7C171.7 459 214.3 424 257.2 419.5C300 415 343 441 385.8 461.8C428.7 482.7 471.3 498.3 514.2 491.7C557 485 600 456 642.8 443C685.7 430 728.3 433 771.2 438.2C814 443.3 857 450.7 878.5 454.3L900 458L900 601L878.5 601C857 601 814 601 771.2 601C728.3 601 685.7 601 642.8 601C600 601 557 601 514.2 601C471.3 601 428.7 601 385.8 601C343 601 300 601 257.2 601C214.3 601 171.7 601 128.8 601C86 601 43 601 21.5 601L0 601Z" fill="#0066FF" stroke-linecap="round" stroke-linejoin="miter"></path></svg>